<mxfile host="app.diagrams.net" agent="Mozilla/5.0 (Windows NT 10.0; Win64; x64) AppleWebKit/537.36 (KHTML, like Gecko) Chrome/130.0.0.0 Safari/537.36" version="24.7.10">
  <diagram name="Page-1" id="-XPMnU7TbbDHJlBPXei2">
    <mxGraphModel dx="794" dy="418" grid="1" gridSize="10" guides="1" tooltips="1" connect="1" arrows="1" fold="1" page="1" pageScale="1" pageWidth="850" pageHeight="1100" math="0" shadow="0">
      <root>
        <mxCell id="0" />
        <mxCell id="1" parent="0" />
        <mxCell id="wvNQiRVMkWBIij5ukVHj-6" style="edgeStyle=orthogonalEdgeStyle;rounded=0;orthogonalLoop=1;jettySize=auto;html=1;exitX=0.5;exitY=1;exitDx=0;exitDy=0;entryX=0.5;entryY=0;entryDx=0;entryDy=0;" edge="1" parent="1" source="wvNQiRVMkWBIij5ukVHj-1" target="wvNQiRVMkWBIij5ukVHj-2">
          <mxGeometry relative="1" as="geometry" />
        </mxCell>
        <mxCell id="wvNQiRVMkWBIij5ukVHj-7" style="edgeStyle=orthogonalEdgeStyle;rounded=0;orthogonalLoop=1;jettySize=auto;html=1;exitX=0.5;exitY=1;exitDx=0;exitDy=0;entryX=0.5;entryY=0;entryDx=0;entryDy=0;" edge="1" parent="1" source="wvNQiRVMkWBIij5ukVHj-1" target="wvNQiRVMkWBIij5ukVHj-3">
          <mxGeometry relative="1" as="geometry" />
        </mxCell>
        <mxCell id="wvNQiRVMkWBIij5ukVHj-1" value="&lt;font style=&quot;font-size: 18px;&quot;&gt;&lt;b&gt;Missing Values&lt;/b&gt;&lt;/font&gt;" style="rounded=0;whiteSpace=wrap;html=1;" vertex="1" parent="1">
          <mxGeometry x="160" y="40" width="120" height="60" as="geometry" />
        </mxCell>
        <mxCell id="wvNQiRVMkWBIij5ukVHj-2" value="&lt;font style=&quot;font-size: 14px;&quot;&gt;&lt;b style=&quot;&quot;&gt;Removing&lt;/b&gt;&lt;/font&gt;" style="rounded=0;whiteSpace=wrap;html=1;" vertex="1" parent="1">
          <mxGeometry x="50" y="140" width="120" height="60" as="geometry" />
        </mxCell>
        <mxCell id="wvNQiRVMkWBIij5ukVHj-11" style="edgeStyle=orthogonalEdgeStyle;rounded=0;orthogonalLoop=1;jettySize=auto;html=1;exitX=0.5;exitY=1;exitDx=0;exitDy=0;entryX=0.5;entryY=0;entryDx=0;entryDy=0;" edge="1" parent="1" source="wvNQiRVMkWBIij5ukVHj-3" target="wvNQiRVMkWBIij5ukVHj-8">
          <mxGeometry relative="1" as="geometry" />
        </mxCell>
        <mxCell id="wvNQiRVMkWBIij5ukVHj-12" style="edgeStyle=orthogonalEdgeStyle;rounded=0;orthogonalLoop=1;jettySize=auto;html=1;exitX=0.5;exitY=1;exitDx=0;exitDy=0;entryX=0.5;entryY=0;entryDx=0;entryDy=0;" edge="1" parent="1" source="wvNQiRVMkWBIij5ukVHj-3" target="wvNQiRVMkWBIij5ukVHj-10">
          <mxGeometry relative="1" as="geometry" />
        </mxCell>
        <mxCell id="wvNQiRVMkWBIij5ukVHj-3" value="&lt;font style=&quot;font-size: 14px;&quot;&gt;&lt;b&gt;Impute&lt;/b&gt;&lt;/font&gt;" style="rounded=0;whiteSpace=wrap;html=1;" vertex="1" parent="1">
          <mxGeometry x="340" y="140" width="120" height="60" as="geometry" />
        </mxCell>
        <mxCell id="wvNQiRVMkWBIij5ukVHj-15" style="edgeStyle=orthogonalEdgeStyle;rounded=0;orthogonalLoop=1;jettySize=auto;html=1;exitX=0.5;exitY=1;exitDx=0;exitDy=0;entryX=0.5;entryY=0;entryDx=0;entryDy=0;" edge="1" parent="1" source="wvNQiRVMkWBIij5ukVHj-8" target="wvNQiRVMkWBIij5ukVHj-13">
          <mxGeometry relative="1" as="geometry" />
        </mxCell>
        <mxCell id="wvNQiRVMkWBIij5ukVHj-16" style="edgeStyle=orthogonalEdgeStyle;rounded=0;orthogonalLoop=1;jettySize=auto;html=1;exitX=0.5;exitY=1;exitDx=0;exitDy=0;entryX=0.5;entryY=0;entryDx=0;entryDy=0;" edge="1" parent="1" source="wvNQiRVMkWBIij5ukVHj-8" target="wvNQiRVMkWBIij5ukVHj-14">
          <mxGeometry relative="1" as="geometry" />
        </mxCell>
        <mxCell id="wvNQiRVMkWBIij5ukVHj-8" value="&lt;b&gt;Univariate&lt;/b&gt;" style="rounded=0;whiteSpace=wrap;html=1;" vertex="1" parent="1">
          <mxGeometry x="190" y="260" width="120" height="60" as="geometry" />
        </mxCell>
        <mxCell id="wvNQiRVMkWBIij5ukVHj-33" style="edgeStyle=orthogonalEdgeStyle;rounded=0;orthogonalLoop=1;jettySize=auto;html=1;exitX=0.5;exitY=1;exitDx=0;exitDy=0;entryX=0.5;entryY=0;entryDx=0;entryDy=0;" edge="1" parent="1" source="wvNQiRVMkWBIij5ukVHj-10" target="wvNQiRVMkWBIij5ukVHj-31">
          <mxGeometry relative="1" as="geometry" />
        </mxCell>
        <mxCell id="wvNQiRVMkWBIij5ukVHj-34" style="edgeStyle=orthogonalEdgeStyle;rounded=0;orthogonalLoop=1;jettySize=auto;html=1;exitX=0.5;exitY=1;exitDx=0;exitDy=0;entryX=0.5;entryY=0;entryDx=0;entryDy=0;" edge="1" parent="1" source="wvNQiRVMkWBIij5ukVHj-10" target="wvNQiRVMkWBIij5ukVHj-32">
          <mxGeometry relative="1" as="geometry" />
        </mxCell>
        <mxCell id="wvNQiRVMkWBIij5ukVHj-10" value="&lt;b&gt;Multivariate&lt;/b&gt;" style="rounded=0;whiteSpace=wrap;html=1;" vertex="1" parent="1">
          <mxGeometry x="620" y="260" width="120" height="60" as="geometry" />
        </mxCell>
        <mxCell id="wvNQiRVMkWBIij5ukVHj-21" style="edgeStyle=orthogonalEdgeStyle;rounded=0;orthogonalLoop=1;jettySize=auto;html=1;exitX=0;exitY=1;exitDx=0;exitDy=0;entryX=0;entryY=0.5;entryDx=0;entryDy=0;" edge="1" parent="1" source="wvNQiRVMkWBIij5ukVHj-13" target="wvNQiRVMkWBIij5ukVHj-20">
          <mxGeometry relative="1" as="geometry" />
        </mxCell>
        <mxCell id="wvNQiRVMkWBIij5ukVHj-22" style="edgeStyle=orthogonalEdgeStyle;rounded=0;orthogonalLoop=1;jettySize=auto;html=1;exitX=0;exitY=1;exitDx=0;exitDy=0;entryX=0;entryY=0.5;entryDx=0;entryDy=0;" edge="1" parent="1" source="wvNQiRVMkWBIij5ukVHj-13" target="wvNQiRVMkWBIij5ukVHj-17">
          <mxGeometry relative="1" as="geometry" />
        </mxCell>
        <mxCell id="wvNQiRVMkWBIij5ukVHj-23" style="edgeStyle=orthogonalEdgeStyle;rounded=0;orthogonalLoop=1;jettySize=auto;html=1;exitX=0;exitY=1;exitDx=0;exitDy=0;entryX=0;entryY=0.5;entryDx=0;entryDy=0;" edge="1" parent="1" source="wvNQiRVMkWBIij5ukVHj-13" target="wvNQiRVMkWBIij5ukVHj-18">
          <mxGeometry relative="1" as="geometry" />
        </mxCell>
        <mxCell id="wvNQiRVMkWBIij5ukVHj-24" style="edgeStyle=orthogonalEdgeStyle;rounded=0;orthogonalLoop=1;jettySize=auto;html=1;exitX=0;exitY=1;exitDx=0;exitDy=0;entryX=0;entryY=0.5;entryDx=0;entryDy=0;" edge="1" parent="1" source="wvNQiRVMkWBIij5ukVHj-13" target="wvNQiRVMkWBIij5ukVHj-19">
          <mxGeometry relative="1" as="geometry" />
        </mxCell>
        <mxCell id="wvNQiRVMkWBIij5ukVHj-13" value="&lt;b&gt;Numerical&lt;/b&gt;" style="rounded=0;whiteSpace=wrap;html=1;" vertex="1" parent="1">
          <mxGeometry x="10" y="360" width="170" height="60" as="geometry" />
        </mxCell>
        <mxCell id="wvNQiRVMkWBIij5ukVHj-29" style="edgeStyle=orthogonalEdgeStyle;rounded=0;orthogonalLoop=1;jettySize=auto;html=1;exitX=0;exitY=1;exitDx=0;exitDy=0;entryX=0;entryY=0.5;entryDx=0;entryDy=0;" edge="1" parent="1" source="wvNQiRVMkWBIij5ukVHj-14" target="wvNQiRVMkWBIij5ukVHj-25">
          <mxGeometry relative="1" as="geometry" />
        </mxCell>
        <mxCell id="wvNQiRVMkWBIij5ukVHj-30" style="edgeStyle=orthogonalEdgeStyle;rounded=0;orthogonalLoop=1;jettySize=auto;html=1;exitX=0;exitY=1;exitDx=0;exitDy=0;entryX=0;entryY=0.5;entryDx=0;entryDy=0;" edge="1" parent="1" source="wvNQiRVMkWBIij5ukVHj-14" target="wvNQiRVMkWBIij5ukVHj-28">
          <mxGeometry relative="1" as="geometry" />
        </mxCell>
        <mxCell id="wvNQiRVMkWBIij5ukVHj-14" value="&lt;b&gt;Categorical&lt;/b&gt;" style="rounded=0;whiteSpace=wrap;html=1;" vertex="1" parent="1">
          <mxGeometry x="360" y="360" width="150" height="60" as="geometry" />
        </mxCell>
        <mxCell id="wvNQiRVMkWBIij5ukVHj-17" value="Mean/Median" style="rounded=0;whiteSpace=wrap;html=1;" vertex="1" parent="1">
          <mxGeometry x="35" y="470" width="155" height="60" as="geometry" />
        </mxCell>
        <mxCell id="wvNQiRVMkWBIij5ukVHj-18" value="Random values from already present data" style="rounded=0;whiteSpace=wrap;html=1;" vertex="1" parent="1">
          <mxGeometry x="32.5" y="550" width="155" height="60" as="geometry" />
        </mxCell>
        <mxCell id="wvNQiRVMkWBIij5ukVHj-19" value="Arbitrary value" style="rounded=0;whiteSpace=wrap;html=1;" vertex="1" parent="1">
          <mxGeometry x="32.5" y="630" width="155" height="60" as="geometry" />
        </mxCell>
        <mxCell id="wvNQiRVMkWBIij5ukVHj-20" value="End of data&lt;div&gt;(Mean&amp;nbsp;± 3σ&amp;nbsp;&lt;/div&gt;&lt;div&gt;or&lt;/div&gt;&lt;div&gt;Q1-1.5IQR/&lt;span style=&quot;background-color: initial;&quot;&gt;Q3+1.5IQR&lt;/span&gt;&lt;span style=&quot;background-color: initial;&quot;&gt;)&lt;/span&gt;&lt;/div&gt;" style="rounded=0;whiteSpace=wrap;html=1;" vertex="1" parent="1">
          <mxGeometry x="35" y="710" width="155" height="60" as="geometry" />
        </mxCell>
        <mxCell id="wvNQiRVMkWBIij5ukVHj-25" value="Mode" style="rounded=0;whiteSpace=wrap;html=1;" vertex="1" parent="1">
          <mxGeometry x="380" y="450" width="155" height="60" as="geometry" />
        </mxCell>
        <mxCell id="wvNQiRVMkWBIij5ukVHj-28" value="Create a new col indicating missing or not" style="rounded=0;whiteSpace=wrap;html=1;" vertex="1" parent="1">
          <mxGeometry x="380" y="540" width="155" height="60" as="geometry" />
        </mxCell>
        <mxCell id="wvNQiRVMkWBIij5ukVHj-31" value="KNN imputer" style="rounded=0;whiteSpace=wrap;html=1;" vertex="1" parent="1">
          <mxGeometry x="560" y="380" width="120" height="60" as="geometry" />
        </mxCell>
        <mxCell id="wvNQiRVMkWBIij5ukVHj-32" value="Iterative imputer" style="rounded=0;whiteSpace=wrap;html=1;" vertex="1" parent="1">
          <mxGeometry x="710" y="380" width="120" height="60" as="geometry" />
        </mxCell>
      </root>
    </mxGraphModel>
  </diagram>
</mxfile>
